# xmcd
#
# Track frame offsets:
#	150
#	15821
#	33205
#	45647
#	61495
#	72707
#	91170
#	110437
#	125207
#	144955
#	162268
#	172678
#	190064
#	204813
#	219849
#	235918
#	251434
#	268964
#	284600
#
# Disc length: 4108 seconds
#
# Revision: 0
# Processed by: cddbd v1.5.1PL0 Copyright (c) Steve Scherf et al.
# Submitted via: audiograbber 1.83.01
#
DISCID=07100a13
DTITLE=Various Artist - Hits from the Heartland
DYEAR=1900
DGENRE=Country
TTITLE0=Brooks and Dunn - My Maria
TTITLE1=The Mavericks - What a crying shame
TTITLE2=Pam Tillis - When you walk in the room
TTITLE3=The Judds - Why not me
TTITLE4=Alan Jackson - Tall tall trees
TTITLE5=Trisha Yearwood - She's in love with the boy
TTITLE6=Blackhawk - I'm not strong enough to say no
TTITLE7=Carlene Carter - Sweet meant to be
TTITLE8=Clint Black - Like the rain
TTITLE9=Alison Krauss - Baby, now that I've found you
TTITLE10=George Strait - Heartland
TTITLE11=Wynonna - Tell me why
TTITLE12=Alabama - Is the magic still there
TTITLE13=Diamond Rio - Meet in the middle
TTITLE14=Lee Ann Womack - The fool
TTITLE15=Martina McBride - Independence day
TTITLE16=Ray Vega - Maria
TTITLE17=Reba McEntire - One promise too late
TTITLE18=Vince Gill - Go rest high on that mountain
EXTD=
EXTT0=
EXTT1=
EXTT2=
EXTT3=
EXTT4=
EXTT5=
EXTT6=
EXTT7=
EXTT8=
EXTT9=
EXTT10=
EXTT11=
EXTT12=
EXTT13=
EXTT14=
EXTT15=
EXTT16=
EXTT17=
EXTT18=
PLAYORDER=
